PathFileType        4      (X/Y/Z)      C:\Users\pc\Desktop\IMUTRC\Sujet_01\Sujet_01_Tpose.trc         
DataRate	CameraRate	NumFrames	NumMarkers	Units	OrigDataRate	OrigDataStartFrame	OrigNumFrames
60.0	60.0	4	64	mm	60.0	1	114
Frame#	Time	pHipOrigin			pRightASI			pLeftASI			pRightCSI			pLeftCSI			pRightIschialTub			pLeftIschialTub			pSacrum			pL5SpinalProcess			pL3SpinalProcess			pT12SpinalProcess			pIJ			pT4SpinalProcess			pT8SpinalProcess			pPX			pC7SpinalProcess			pTopOfHead			pRightAuricularis			pLeftAuricularis			pBackOfHead			pRightAcromion			pLeftAcromion			pRightArmLatEpicondyle			pRightArmMedEpicondyle			pLeftArmLatEpicondyle			pLeftArmMedEpicondyle			pRightUlnarStyloid			pRightRadialStyloid			pRightOlecranon			pLeftUlnarStyloid			pLeftRadialStyloid			pLeftOlecranon			pRightTopOfHand			pRightPinky			pRightBallHand			pLeftTopOfHand			pLeftPinky			pLeftBallHand			pRightGreaterTrochanter			pRightKneeLatEpicondyle			pRightKneeMedEpicondyle			pRightPatella			pLeftGreaterTrochanter			pLeftKneeLatEpicondyle			pLeftKneeMedEpicondyle			pLeftPatella			pRightTibialTub			pRightLatMalleolus			pRightMedMalleolus			pLeftTibialTub			pLeftLatMalleolus			pLeftMedMalleolus			pRightHeelFoot			pRightFirstMetatarsal			pRightFifthMetatarsal			pRightPivotFoot			pRightHeelCenter			pRightToe			pLeftHeelFoot			pLeftFirstMetatarsal			pLeftFifthMetatarsal			pLeftPivotFoot			pLeftHeelCenter			pLeftToe			
		X1	Y1	Z1	X2	Y2	Z2	X3	Y3	Z3	X4	Y4	Z4	X5	Y5	Z5	X6	Y6	Z6	X7	Y7	Z7	X8	Y8	Z8	X9	Y9	Z9	X10	Y10	Z10	X11	Y11	Z11	X12	Y12	Z12	X13	Y13	Z13	X14	Y14	Z14	X15	Y15	Z15	X16	Y16	Z16	X17	Y17	Z17	X18	Y18	Z18	X19	Y19	Z19	X20	Y20	Z20	X21	Y21	Z21	X22	Y22	Z22	X23	Y23	Z23	X24	Y24	Z24	X25	Y25	Z25	X26	Y26	Z26	X27	Y27	Z27	X28	Y28	Z28	X29	Y29	Z29	X30	Y30	Z30	X31	Y31	Z31	X32	Y32	Z32	X33	Y33	Z33	X34	Y34	Z34	X35	Y35	Z35	X36	Y36	Z36	X37	Y37	Z37	X38	Y38	Z38	X39	Y39	Z39	X40	Y40	Z40	X41	Y41	Z41	X42	Y42	Z42	X43	Y43	Z43	X44	Y44	Z44	X45	Y45	Z45	X46	Y46	Z46	X47	Y47	Z47	X48	Y48	Z48	X49	Y49	Z49	X50	Y50	Z50	X51	Y51	Z51	X52	Y52	Z52	X53	Y53	Z53	X54	Y54	Z54	X55	Y55	Z55	X56	Y56	Z56	X57	Y57	Z57	X58	Y58	Z58	X59	Y59	Z59	X60	Y60	Z60	X61	Y61	Z61	X62	Y62	Z62	X63	Y63	Z63	X64	Y64	Z64	
1	0.0	0.0	1249.97542	7.653891985579342E-14	28.30822999999998	1347.76176	131.51663000000008	67.90192000000002	1349.46403	-114.6199599999999	-16.455340000000014	1403.36946	102.26269000000009	16.14010000000001	1404.81955	-100.11907999999991	-51.38354000000001	1191.02621	43.25044000000006	-35.054289999999995	1191.71973	-57.940449999999935	-62.73205	1261.13479	-10.024519999999931	-41.42206	1351.79678	-6.115589999999923	-38.20665	1456.14003	-6.430819999999915	-42.36777	1551.40448	-8.511379999999912	100.74956	1744.20307	11.348510000000118	-36.37828	1729.26086	-11.600699999999899	-44.25919	1646.54283	-10.844129999999904	94.57092	1630.9071	13.176880000000113	-31.39755	1779.4465	-10.150609999999896	60.71453	2012.78449	-1.3870399999998695	46.591939999999994	1917.89833	62.35376000000013	45.01576000000001	1921.17679	-69.41505999999988	-5.35902	1927.73371	-2.7110299999998824	-38.64798000000002	1748.112	169.59719000000013	10.08757000000002	1763.24335	-179.81084999999987	-101.82136000000004	1630.71796	371.4745900000001	-56.55341000000004	1601.52707	369.2048900000001	30.89317000000005	1648.93862	-396.6304499999999	64.81261000000005	1611.92987	-377.0857999999999	-86.18564000000008	1523.66367	559.3554900000001	-112.22416000000007	1556.44826	572.8476100000001	-67.39754000000005	1602.28363	360.06303000000014	91.10332000000007	1532.04896	-567.9929699999999	80.25919000000007	1569.12076	-589.0507599999999	51.257440000000045	1614.83004	-373.5551499999999	-197.2119000000001	1474.61289	687.0892800000001	-127.73379000000008	1480.35019	646.1716000000001	-101.06479000000007	1522.97015	600.4623200000001	77.16987000000009	1501.53408	-739.9229099999999	95.13835000000009	1489.61814	-662.0595099999999	99.74080000000006	1528.07698	-606.2626699999998	-31.082310000000017	1219.52358	140.8476300000001	-47.852890000000016	875.91589	105.91943000000006	-28.686510000000002	876.23113	41.485110000000056	-1.57618000000001	875.85285	82.27670000000006	4.728550000000018	1220.40625	-142.8651399999999	-9.457089999999987	876.42027	-110.45883999999994	-0.12608999999999462	877.05075	-43.94395999999994	32.78459000000001	877.36598	-80.19613999999994	10.15060999999999	839.15933	86.50087000000006	-85.42907000000001	471.53063	94.88616000000002	-68.15411	470.58492	37.26094000000002	47.096320000000006	842.94217	-84.16811999999994	-24.525389999999984	473.16985	-134.03851999999998	-17.085809999999988	468.5674	-74.52188999999997	-112.22416	330.5569	47.537650000000006	67.20839999999998	334.65497	98.16462000000003	24.39929999999998	335.28545	175.27145000000002	68.28020999999998	335.47459	147.78283000000002	-74.45884000000001	329.29596	68.5324	132.46233999999998	340.77056	183.40454000000005	-57.183889999999984	329.98948	-90.72503999999999	128.8056	338.8161	-81.14184999999998	113.16987000000002	334.46583	-167.89490999999998	145.82836000000003	337.55515	-127.85988999999996	-14.626969999999988	329.29596	-98.41680999999998	217.89141000000004	343.73378	-141.16286999999994	
2	0.017	0.0	1249.97542	7.653891985579342E-14	28.37127999999998	1347.76176	131.45358000000007	68.15411000000002	1349.27489	-114.6830099999999	-16.266200000000016	1403.49555	102.13660000000009	16.39229000000001	1404.69345	-100.24517999999992	-51.50963000000001	1191.15231	43.25044000000006	-35.11733999999999	1191.71973	-57.940449999999935	-62.73205	1261.19784	-10.08756999999993	-41.23292	1351.79678	-6.178629999999923	-37.95446	1456.14003	-6.5569199999999155	-42.11558	1551.46753	-8.637479999999911	100.9387	1744.26611	11.28546000000012	-36.18914	1729.26086	-11.663749999999897	-44.07005	1646.54283	-10.970229999999905	94.82311	1630.97015	13.113830000000112	-31.2084	1779.38345	-10.213659999999896	60.02101	2012.97363	-1.3870399999998695	46.40279999999999	1918.02443	62.29072000000013	44.700520000000004	1921.42898	-69.47810999999989	-5.61121	1927.67066	-2.711029999999883	-38.584940000000024	1748.30114	169.47110000000012	10.528900000000021	1763.1803	-179.87389999999988	-102.13660000000004	1630.97015	371.2224000000001	-56.93170000000004	1601.65316	369.07879000000014	31.14536000000005	1649.06472	-396.69349999999986	65.06480000000005	1611.92987	-377.21188999999987	-86.94220000000007	1523.97891	559.2293900000001	-112.91768000000008	1556.7635	572.6584700000001	-67.77583000000004	1602.47278	359.9369400000001	91.16637000000007	1532.17506	-568.1821099999999	80.38529000000007	1569.24686	-589.1768499999998	51.509630000000044	1614.89309	-373.6812399999999	-198.2206600000001	1475.11727	686.7740500000001	-128.67950000000008	1480.79152	645.9824600000001	-101.88441000000007	1523.34844	600.3362200000001	77.16987000000009	1501.78627	-740.1120499999998	95.13835000000009	1489.74424	-662.2486499999999	99.80385000000007	1528.20308	-606.4518099999999	-31.082310000000017	1219.58663	140.8476300000001	-47.78984000000001	875.97894	105.91943000000006	-28.623470000000005	876.29418	41.485110000000056	-1.45009000000001	875.97894	82.27670000000006	5.232920000000018	1220.09101	-142.8020899999999	-9.078809999999987	876.23113	-109.38702999999994	-0.18913999999999476	877.05075	-42.809099999999944	32.910680000000006	877.30293	-78.87214999999995	10.21365999999999	839.22238	86.56392000000005	-85.55516000000001	471.59367	95.20140000000002	-68.21716	470.64796	37.57618000000002	47.22241000000001	842.94217	-83.41154999999995	-24.777579999999983	473.359	-134.41680999999997	-17.085809999999988	468.50436	-74.96321999999998	-112.28721	330.61995	47.85289000000001	67.14535999999998	334.71802	98.41681000000003	24.273199999999978	335.3485	175.52363000000003	68.15410999999999	335.53764	148.09807000000004	-74.52189000000001	329.42205	68.84763	132.33624999999998	340.83361	183.71978000000004	-57.30997999999999	330.11557	-91.22941999999999	128.74255	338.87914	-81.52013999999997	113.04378000000001	334.59193	-168.27319999999997	145.70227000000003	337.68124	-128.23816999999994	-14.753059999999987	329.42205	-98.85813999999999	217.82836000000003	343.85988	-141.54114999999993	
3	0.033	0.0	1249.97542	7.653891985579342E-14	28.434319999999982	1347.8248	131.39054000000007	68.34325000000001	1349.08575	-114.6830099999999	-16.077060000000014	1403.5586	102.01050000000008	16.70753000000001	1404.6304	-100.37126999999991	-51.572680000000005	1191.21535	43.25044000000006	-35.18037999999999	1191.78278	-57.940449999999935	-62.73205	1261.32393	-10.08756999999993	-41.10683	1351.85983	-6.304729999999923	-37.76532	1456.20308	-6.6199599999999155	-41.8634	1551.46753	-8.76356999999991	101.12784	1744.32916	11.28546000000012	-35.93695	1729.26086	-11.789839999999897	-43.81786	1646.54283	-11.033269999999904	95.01225	1631.0332	13.050790000000111	-31.01926	1779.38345	-10.276709999999895	59.32749	2013.22582	-1.3239899999998694	46.21365999999999	1918.15052	62.29072000000013	44.32224000000001	1921.61812	-69.47810999999989	-5.92644	1927.54456	-2.647989999999883	-38.45884000000002	1748.55333	169.2819500000001	10.970230000000022	1763.1803	-179.99998999999988	-102.51488000000005	1631.15929	371.0332600000001	-57.309980000000046	1601.8423	368.9527000000001	31.46059000000005	1649.12777	-396.81959999999987	65.31698000000004	1611.99292	-377.3379899999999	-87.63572000000008	1524.2311	559.1033000000001	-113.67425000000007	1557.07873	572.4693200000002	-68.15411000000005	1602.66192	359.8108400000001	91.29246000000008	1532.30115	-568.3712499999999	80.51138000000007	1569.37295	-589.3659999999999	51.76182000000004	1614.95614	-373.8073399999999	-199.2924600000001	1475.68469	686.4588100000001	-129.6882600000001	1481.16981	645.8563600000001	-102.70402000000007	1523.66367	600.1470800000001	77.16987000000009	1502.03846	-740.3642399999999	95.13835000000009	1489.93338	-662.5008399999999	99.92994000000007	1528.32917	-606.6409499999999	-31.082310000000017	1219.64968	140.8476300000001	-47.663750000000014	876.04199	105.91943000000006	-28.560420000000004	876.42027	41.485110000000056	-1.38704000000001	876.04199	82.27670000000006	5.737300000000018	1219.83882	-142.7390499999999	-8.763569999999987	876.04199	-108.31522999999994	-0.3152399999999949	877.11379	-41.674249999999944	33.09982000000001	877.23989	-77.48510999999995	10.276709999999989	839.28542	86.56392000000005	-85.61821000000002	471.71977	95.51663000000002	-68.28021	470.71101	37.89142000000002	47.28546000000001	842.87912	-82.65498999999994	-25.092819999999982	473.54814	-134.79508999999996	-17.02276999999999	468.50436	-75.40454999999997	-112.4133	330.74604	48.16812000000001	67.01925999999999	334.78107	98.73204000000003	24.210159999999977	335.41154	175.83887000000001	68.09105999999998	335.66373	148.41330000000002	-74.64798000000002	329.4851	69.16287	132.27319999999997	340.89666	184.03502000000006	-57.373029999999986	330.17862	-91.67074999999998	128.61646	339.00524	-81.96146999999998	112.98073000000001	334.65497	-168.65147999999996	145.63922000000002	337.74429	-128.61645999999993	-14.816109999999988	329.4851	-99.29946999999999	217.76531000000003	343.92293	-141.91942999999995	
4	0.05	0.0	1249.97542	7.653891985579342E-14	28.497369999999982	1347.88785	131.39054000000007	68.53240000000001	1348.95965	-114.7460499999999	-15.950960000000013	1403.6847	101.94746000000009	16.95972000000001	1404.56736	-100.43431999999991	-51.69877000000001	1191.34145	43.25044000000006	-35.24342999999999	1191.78278	-57.940449999999935	-62.669	1261.38698	-10.150609999999931	-40.98073	1351.85983	-6.3677799999999225	-37.57618	1456.20308	-6.746059999999916	-41.61121	1551.46753	-8.826619999999911	101.31698	1744.39221	11.28546000000012	-35.74781	1729.26086	-11.852889999999897	-43.56567	1646.54283	-11.159369999999903	95.26444	1631.09624	13.050790000000111	-30.83012	1779.3204	-10.339749999999896	58.57093	2013.47801	-1.2609499999998697	45.96146999999999	1918.27661	62.29072000000013	44.007000000000005	1921.80726	-69.41505999999988	-6.24168	1927.48152	-2.5849399999998828	-38.39579000000002	1748.74247	169.1558600000001	11.34851000000002	1763.1803	-179.99998999999988	-102.89316000000004	1631.28538	370.8441200000001	-57.68826000000004	1601.9684	368.8266000000001	31.64974000000005	1649.19081	-396.88263999999987	65.50613000000004	1612.05596	-377.4010299999999	-88.45534000000008	1524.48329	558.9772100000001	-114.43082000000007	1557.33092	572.2801800000001	-68.53240000000004	1602.78801	359.6847500000001	91.29246000000008	1532.3642	-568.4973499999999	80.57443000000008	1569.49905	-589.4920899999998	51.950960000000045	1614.95614	-373.8703799999999	-200.3012200000001	1476.06298	686.1435700000001	-130.6339700000001	1481.48504	645.6672200000002	-103.58668000000007	1523.91586	600.0209900000001	77.10683000000009	1502.29064	-740.4903299999999	95.07530000000008	1490.05947	-662.6899899999999	99.92994000000007	1528.45527	-606.8300899999999	-31.082310000000017	1219.71273	140.9106800000001	-47.60070000000002	876.10504	105.98248000000005	-28.497370000000004	876.42027	41.485110000000056	-1.32399000000001	876.10504	82.27670000000006	6.115590000000018	1219.58663	-142.7390499999999	-8.448339999999988	875.91589	-107.49561999999995	-0.378279999999995	877.17684	-40.79158999999994	33.22592000000001	877.17684	-76.47634999999994	10.33974999999999	839.28542	86.62697000000006	-85.68126000000001	471.78281	95.70577000000002	-68.28021	470.77406	38.143610000000024	47.348510000000005	842.87912	-82.08755999999994	-25.281959999999984	473.73728	-135.04727999999997	-17.02276999999999	468.44131	-75.71978999999997	-112.47635	330.80909	48.42031000000001	66.95620999999998	334.84412	98.98423000000003	24.14710999999998	335.47459	176.09106000000003	68.02801999999998	335.66373	148.66549000000003	-74.71103000000001	329.54815	69.41506	132.21014999999997	340.9597	184.28721000000004	-57.43606999999999	330.24167	-91.92293999999998	128.55341	339.06828	-82.15060999999997	112.98073000000001	334.71802	-168.90366999999998	145.57618000000002	337.80734	-128.86864999999995	-14.879159999999988	329.54815	-99.55165999999998	217.70227000000003	343.98597	-142.10856999999993	
